<svg width="150" height="42" viewBox="0 0 150 42" fill="none" xmlns="http://www.w3.org/2000/svg">
<path d="M66.4987 41.5148C64.3094 40.4311 63.7721 37.729 65.3686 35.8317C65.947 35.1443 67.3247 34.4064 68.0407 34.4005C69.6938 34.387 71.4993 35.734 71.9194 37.2942C72.3695 38.9659 71.5238 40.7756 69.9323 41.546C68.8102 42.0892 67.6377 42.0786 66.4987 41.5148V41.5148ZM70.1892 39.9919C71.5487 38.5085 70.9208 36.2111 68.9986 35.6352C67.9606 35.3242 66.8831 35.6625 66.1548 36.5281C65.3924 37.4341 65.4053 38.9421 66.1833 39.8667C66.9078 40.7276 67.4058 40.9291 68.5593 40.828C69.3127 40.7619 69.6351 40.5966 70.1892 39.9919ZM113.1 39.0752L110.209 36.1843V38.9701V41.7558H109.683H109.157V38.1804V34.6051H109.732C110.184 34.6051 110.815 35.1114 112.677 36.9677L115.046 39.3303V36.9677V34.6051H115.677H116.308V38.2856C116.308 40.3098 116.236 41.9661 116.149 41.9661C116.062 41.9661 114.69 40.6652 113.1 39.0752ZM36.3894 40.4929C36.9911 39.7983 37.5683 39.1776 37.6721 39.1134C37.7759 39.0493 37.8608 38.6712 37.8608 38.2732C37.8608 37.6213 37.919 37.5495 38.4479 37.5495C38.866 37.5495 39.3025 37.2769 39.9639 36.6031L40.8927 35.6566H38.22H35.5473V35.1309V34.6051H39.3505C41.4422 34.6051 43.1221 34.6878 43.0836 34.7888C43.045 34.8899 42.4743 35.5524 41.8152 36.261C40.7843 37.3696 40.5133 37.5495 39.8738 37.5495C39.2567 37.5495 39.1083 37.6386 38.9988 38.0748C38.9263 38.3637 38.9215 38.7423 38.9883 38.9162C39.0586 39.0995 38.8382 39.5413 38.4634 39.9682L37.8172 40.7042H40.4679H43.1186V41.23V41.7558H39.207H35.2954L36.3894 40.4929ZM46.2733 38.1804V34.6051H49.3229H52.3724V35.1309V35.6566H49.8487H47.3249V38.1737V40.6909L49.7961 40.7501C52.178 40.8072 52.2697 40.8265 52.3345 41.2826C52.4016 41.7547 52.3949 41.7558 49.3375 41.7558H46.2733V38.1804V38.1804ZM55.3168 38.1804V34.6051H57.7256C59.1451 34.6051 60.3607 34.7083 60.6857 34.8563C61.3026 35.1374 61.837 36.0174 61.8358 36.7504C61.8348 37.4128 61.1187 38.5336 60.5892 38.7016C59.8944 38.9221 60.0759 39.455 61.251 40.645L62.348 41.7558H61.6103C61.0192 41.7558 60.6967 41.5765 59.9876 40.854C59.1862 40.0375 59.1025 39.8528 59.1025 38.9019C59.1025 37.9075 59.1333 37.8491 59.6809 37.8052C60.6723 37.7257 61.1263 36.6589 60.4545 35.9871C60.2064 35.739 59.6825 35.6566 58.3514 35.6566H56.5787V38.7062V41.7558H55.9478H55.3168V38.1804H55.3168ZM79.0824 38.1804V34.6051H81.0093C82.6823 34.6051 83.0538 34.674 83.8283 35.1279C84.8484 35.7257 85.6021 37.0369 85.6021 38.2137C85.6021 39.311 84.7691 40.7269 83.7987 41.2791C83.1102 41.6709 82.6503 41.7494 81.0278 41.7523L79.0824 41.7558V38.1804H79.0824ZM83.4688 40.1715C83.8169 39.8786 84.2101 39.3107 84.3425 38.9096C84.6583 37.9528 84.3226 36.9078 83.4688 36.1893C82.9351 35.7403 82.6236 35.6567 81.4848 35.6567H80.1339V38.1804V40.7042H81.4848C82.6236 40.7042 82.9351 40.6206 83.4688 40.1715V40.1715ZM87.3729 41.3877C87.4462 41.1853 88.0913 39.5764 88.8066 37.8124L90.1071 34.6051H91.0752H92.0434L93.4505 38.0227C94.2244 39.9024 94.8572 41.5113 94.8567 41.598C94.8563 41.6848 94.5957 41.7549 94.2776 41.7538C93.7305 41.7519 93.6323 41.5869 92.4633 38.7042C91.7835 37.028 91.1609 35.6567 91.0796 35.6567C90.9983 35.6567 90.3714 37.0288 89.6866 38.7058C88.4929 41.6286 88.4165 41.7549 87.8405 41.7553C87.3576 41.7558 87.2658 41.6835 87.3729 41.3877V41.3877ZM98.1194 41.4929C97.8554 40.7071 96.1178 34.8368 96.1178 34.7306C96.1178 34.6616 96.3849 34.6051 96.7114 34.6051C97.2932 34.6051 97.3231 34.6655 98.2204 37.6529C98.7239 39.3292 99.159 40.6775 99.1874 40.6491C99.2157 40.6208 99.4883 39.6042 99.793 38.39C100.816 34.3151 100.697 34.6051 101.342 34.6051C101.914 34.6051 101.933 34.6472 102.638 37.5495C103.031 39.1689 103.405 40.4935 103.468 40.493C103.532 40.4926 103.967 39.1912 104.435 37.6012C105.28 34.727 105.289 34.7099 105.943 34.6456L106.6 34.5809L105.881 36.959C105.486 38.267 105.007 39.8813 104.818 40.5464L104.475 41.7558H103.492H102.51L102.022 39.7052C101.753 38.5774 101.469 37.5331 101.389 37.3845C101.31 37.2356 101.075 37.8363 100.866 38.7233C100.106 41.9494 100.215 41.7558 99.1509 41.7558C98.5837 41.7558 98.1725 41.651 98.1194 41.4929V41.4929ZM17.7535 40.8274C17.6815 40.6399 17.4765 40.5118 17.2979 40.5427C16.7559 40.6367 16.6615 39.7201 16.6166 33.9293C16.5667 27.4939 16.5938 25.8144 16.7563 25.272C16.8213 25.0548 16.8093 24.0938 16.7295 23.1362C16.6147 21.7577 16.5115 21.379 16.2337 21.3171C15.8525 21.2322 7.12815 21.5021 6.38364 21.6219C5.83644 21.71 5.26194 22.1551 5.26194 22.491C5.26194 22.8326 4.44216 23.4965 4.20297 23.3487C4.09402 23.2813 4.05312 23.352 4.11208 23.5056C4.17104 23.6593 3.83871 24.1566 3.37357 24.6108C2.61528 25.3512 2.22727 25.9825 2.71614 25.6803C3.03309 25.4844 3.12167 26.0517 3.00368 27.5216C2.89468 28.8794 2.87188 28.9266 2.3238 28.9266C2.0119 28.9266 1.69376 28.9895 1.61683 29.0664C1.5399 29.1434 1.24755 29.2308 0.967166 29.2607C0.0155548 29.3621 -0.0129241 29.0946 0.00244356 20.1985C0.0178848 11.2594 0.0124421 11.3573 0.491753 11.397C0.72917 11.4166 0.833925 11.3235 0.767925 11.1515C0.614273 10.7511 1.15986 10.6104 1.60477 10.9358C1.81359 11.0885 2.08577 11.1745 2.20961 11.127C2.33345 11.0795 2.62134 11.177 2.84936 11.3438C3.24427 11.6326 3.26103 11.875 3.2023 16.4485L3.14065 21.2501L4.39629 19.9357C5.50101 18.7792 5.74856 18.6201 6.45593 18.6124C6.89813 18.6076 9.31839 18.5926 11.8343 18.5792L16.4086 18.5547L16.4328 15.591C16.4461 13.9609 16.4388 12.4535 16.4166 12.2412C16.3943 12.0288 16.54 11.6739 16.7404 11.4525C17.0545 11.1054 17.0598 11.0499 16.7788 11.0499C16.5049 11.0499 16.4283 10.5243 16.2985 7.75623C16.0685 2.84821 16.424 0.113546 17.2921 0.113546C17.5002 0.113546 17.6705 0.210609 17.6705 0.329252C17.6705 0.452094 17.9421 0.404506 18.3014 0.218703C18.9221 -0.102236 18.9324 -0.0988892 18.9324 0.423614C18.9324 0.975024 19.2477 1.15148 19.4118 0.691911C19.6683 -0.0262286 19.7665 1.01328 19.7835 4.6272C19.7938 6.80608 19.7248 8.64568 19.6302 8.71519C19.5356 8.7847 19.3162 9.03086 19.1427 9.26221C18.8491 9.65366 18.8531 9.66252 19.2004 9.38997C19.4056 9.22889 19.6422 9.16568 19.7261 9.24947C19.8101 9.33327 19.9026 11.4448 19.9318 13.9418C19.9609 16.4388 20.0272 18.5242 20.0791 18.5761C20.131 18.6281 21.3363 18.6831 22.7574 18.6985C25.6247 18.7294 25.7741 18.8147 25.2066 20.0968C24.9586 20.657 24.8556 20.7104 24.2441 20.5957C23.7882 20.5102 23.5593 20.5495 23.5593 20.7133C23.5593 20.8487 23.4723 20.9057 23.3659 20.84C23.2596 20.7743 23.0455 20.8475 22.8902 21.0028C22.7143 21.1787 22.1133 21.2852 21.2959 21.2852C20.5743 21.2852 19.9433 21.3258 19.8936 21.3755C19.7581 21.511 19.6707 32.4768 19.7667 37.2899C19.8252 40.2206 19.7595 40.3733 18.1455 41.0577C18.0019 41.1186 17.8255 41.015 17.7535 40.8275L17.7535 40.8274ZM19.409 37.2105C19.4667 36.9084 19.3956 36.433 19.2508 36.154C18.9938 35.6587 18.9845 35.6669 18.8504 36.5058C18.7748 36.9782 18.7679 37.4536 18.8351 37.5622C19.0561 37.9198 19.3022 37.7689 19.409 37.2105H19.409ZM132.75 40.4939C132.559 40.0396 132.526 40.0253 132.509 40.3887C132.491 40.776 132.472 40.7802 132.275 40.4413C132.157 40.2389 131.888 40.0733 131.676 40.0733C131.172 40.0733 130.858 39.6734 130.851 39.0217C130.848 38.7325 130.78 37.9995 130.701 37.3928C130.595 36.5899 130.635 36.1943 130.845 35.939C131.071 35.6658 131.077 35.5687 130.872 35.4998C130.727 35.4511 130.609 35.2243 130.609 34.9958C130.609 34.7193 130.697 34.6331 130.872 34.7382C131.051 34.8455 131.042 34.7821 130.846 34.5403C130.688 34.3446 130.645 34.1845 130.751 34.1845C130.917 34.1845 131.117 31.967 131.036 31.0297C131.021 30.8562 130.966 28.9972 130.914 26.8986C130.831 23.5654 130.861 23.0668 131.15 22.9559C131.332 22.8861 131.663 22.9266 131.886 23.046C132.165 23.1953 132.292 23.195 132.292 23.0451C132.292 22.7442 132.762 22.8663 133.073 23.248C133.292 23.5165 133.334 23.4851 133.358 23.0377L133.385 22.5119L133.554 23.0378C133.646 23.327 133.731 23.4397 133.743 23.2883C133.754 23.1369 133.865 23.0753 133.988 23.1514C134.136 23.2432 134.101 23.4124 133.883 23.6536C133.522 24.0517 133.417 25.4603 133.764 25.2461C133.88 25.1746 133.974 24.9324 133.974 24.7079C133.974 24.4834 134.057 24.2997 134.158 24.2997C134.259 24.2997 134.324 25.9796 134.303 28.0328C134.282 30.086 134.338 33.1855 134.428 34.9206C134.593 38.1134 134.373 40.1711 133.883 40.0077C133.63 39.9233 133.253 40.254 133.086 40.708C133.001 40.9377 132.913 40.8814 132.75 40.4939V40.4939ZM133.681 25.6185C133.611 25.5486 133.561 25.6729 133.57 25.8946C133.58 26.1396 133.63 26.1894 133.697 26.0216C133.758 25.8698 133.751 25.6884 133.681 25.6185H133.681ZM49.2555 38.1278C49.3036 37.789 49.4869 37.6357 49.901 37.5881C50.399 37.5308 50.4794 37.5965 50.4794 38.0613C50.4794 38.5235 50.3867 38.6011 49.8338 38.6011C49.2846 38.6011 49.1983 38.5304 49.2555 38.1278ZM74.5205 31.0584L73.8611 30.4561L73.8291 24.1706C73.8115 20.7136 73.7829 17.128 73.7655 16.2026C73.7481 15.2772 73.7543 13.6049 73.7791 12.4864L73.8243 10.4527L75.0872 10.4999C75.7818 10.5259 76.4508 10.6479 76.5739 10.771C76.7233 10.9203 76.8228 14.1818 76.873 20.579C76.9484 30.1626 76.9483 30.1632 76.5095 30.2284C76.2682 30.2643 76.0457 30.4666 76.0153 30.6781C75.848 31.8387 75.478 31.9329 74.5205 31.0584V31.0584ZM75.7107 24.4048C75.7107 24.2892 75.6189 24.3365 75.5068 24.51C75.3947 24.6835 75.3029 24.9201 75.3029 25.0358C75.3029 25.1515 75.3947 25.1041 75.5068 24.9306C75.6189 24.7571 75.7107 24.5205 75.7107 24.4048ZM75.0862 22.9202C75.0862 22.7399 74.99 22.6518 74.8724 22.7244C74.7549 22.7971 74.7132 22.9446 74.7797 23.0523C74.96 23.344 75.0862 23.2896 75.0862 22.9202ZM74.9924 20.953C74.7506 20.5619 74.4888 20.7022 74.6083 21.1589C74.6824 21.4423 74.7935 21.5218 74.9278 21.3875C75.041 21.2743 75.0701 21.0787 74.9924 20.953ZM74.5823 19.5194C74.5124 19.4495 74.4627 19.5738 74.4718 19.7955C74.4819 20.0405 74.5318 20.0903 74.5989 19.9225C74.6597 19.7707 74.6522 19.5893 74.5823 19.5194ZM69.8283 30.1471C69.4235 30.0442 68.9503 29.9023 68.7767 29.8316C68.6032 29.761 68.2351 29.6654 67.9587 29.6192C67.6822 29.573 66.7418 28.9124 65.8689 28.151C64.9959 27.3897 64.1506 26.6612 63.9904 26.5322C63.8302 26.4032 63.5166 26.132 63.2935 25.9296C63.0705 25.7272 62.7607 25.5616 62.6051 25.5616C61.9037 25.5616 61.6783 24.8501 61.5534 22.2421C61.4399 19.8702 61.4632 19.6253 61.8386 19.2499C62.0635 19.025 62.3847 18.8937 62.5524 18.958C62.7201 19.0224 63.2876 18.8847 63.8134 18.6521C65.3671 17.9649 65.9702 16.528 65.3962 14.8814C65.2195 14.3745 64.9597 14.1618 64.202 13.9036C63.6694 13.7221 62.8956 13.5714 62.4824 13.5686C62.0693 13.5659 61.3769 13.4813 60.9438 13.3807C59.9762 13.156 55.992 13.4451 55.674 13.7631C55.5318 13.9053 55.5243 13.9943 55.6545 13.9943C55.7831 13.9943 55.8445 14.6342 55.811 15.6242C55.7425 17.6448 55.6004 18.2708 55.2583 18.0593C55.1173 17.9722 54.6397 17.8823 54.197 17.8596C53.7542 17.8368 53.3281 17.7546 53.2501 17.677C53.1721 17.5993 53.0781 16.1371 53.0411 14.4277C52.9847 11.8252 53.0273 11.2661 53.3031 10.9903C53.5881 10.7053 54.2774 10.6726 58.418 10.7478C61.05 10.7955 63.5303 10.8909 63.9297 10.9598C65.4495 11.2218 67.6181 12.7222 68.1069 13.8498C68.2667 14.2184 68.4099 15.2871 68.425 16.2246C68.4497 17.7565 68.3939 18.0176 67.8745 18.8025C67.2113 19.8047 65.7848 20.9121 64.9385 21.0816C64.3958 21.1904 64.3609 21.264 64.3721 22.2754C64.3838 23.3309 64.4096 23.374 65.6156 24.3537C67.7133 26.0578 70.8606 28.9176 71.0583 29.2993C71.3781 29.9167 70.7163 30.3728 69.8283 30.1471H69.8283ZM65.3066 19.6728C65.6746 19.2661 65.6739 19.2522 65.2866 19.2553C64.7242 19.2599 64.2791 19.5817 64.4508 19.8596C64.6592 20.1968 64.8749 20.1497 65.3066 19.6728H65.3066ZM53.514 29.6997C53.4453 29.5204 53.2536 29.4257 53.0882 29.4892C52.8358 29.5861 52.7922 29.1611 52.8179 26.8502L52.8485 24.0958L51.5062 22.7004C50.768 21.933 50.0496 21.1851 49.9099 21.0386C49.593 20.7062 46.2459 20.864 46.0135 21.2223C45.9285 21.3533 45.8575 21.7098 45.8557 22.0146C45.8496 23.0613 44.73 25.0016 43.3163 26.4152C42.2048 27.5267 39.7942 28.6819 38.0719 28.9284C36.6719 29.1287 34.5635 29.0044 34.1715 28.6984C34.0511 28.6044 33.6252 28.4703 33.225 28.4005C30.557 27.9351 27.6441 24.2457 27.3587 20.9705C27.0777 17.7446 27.8986 15.4015 30.1018 13.1408C31.311 11.9 31.6194 11.7047 33.1737 11.1954C36.9555 9.9562 41.2369 10.8221 43.659 13.3161C44.5421 14.2254 45.7485 16.3235 45.9536 17.3067L46.0962 17.9903H47.5414C50.4 17.9903 50.7604 18.1598 53.4869 20.787L55.9318 23.143L55.8065 26.1925C55.7376 27.8698 55.6594 29.2686 55.6328 29.301C55.6061 29.3334 55.2808 29.3984 54.9099 29.4453C54.5389 29.4923 54.1012 29.642 53.9373 29.7781C53.7034 29.9722 53.6121 29.9552 53.5141 29.6997L53.514 29.6997ZM39.6827 25.8191C41.6409 24.2408 42.0967 23.7513 42.6015 22.6844C43.0358 21.7663 43.1476 21.2158 43.1425 20.0215C43.1334 17.8885 42.9726 16.615 42.7198 16.6733C42.6004 16.7008 42.5534 16.591 42.6154 16.4294C42.6812 16.258 42.5593 16.0818 42.3232 16.0069C42.1005 15.9362 41.669 15.5986 41.3644 15.2567C40.0242 13.7525 37.2309 13.0263 34.888 13.573C32.6715 14.0901 30.7157 16.1918 30.3747 18.4228C30.2961 18.9368 30.1455 19.4672 30.04 19.6014C29.9218 19.7519 29.9328 19.8979 30.0687 19.9819C30.19 20.0569 30.2892 20.5341 30.2892 21.0423C30.2892 22.6172 31.1696 24.0808 32.7645 25.1572C35.0553 26.7031 38.2113 27.0051 39.6827 25.8191L39.6827 25.8191ZM51.6382 21.9884C51.3069 21.6426 50.9816 21.4145 50.9154 21.4815C50.8079 21.5901 51.9204 22.6135 52.1487 22.6161C52.1993 22.6167 51.9695 22.3342 51.6382 21.9884ZM30.7665 15.0779L31.1386 14.3097L30.5984 14.9407C30.3012 15.2877 29.9625 15.7416 29.8457 15.9493C29.6605 16.2783 29.6822 16.296 30.0138 16.0865C30.2231 15.9543 30.5618 15.5004 30.7665 15.0779ZM148.16 29.1033C146.417 27.9065 146.266 27.7596 144.95 25.9822C144.307 25.1146 142.332 22.9615 140.56 21.1973C138.789 19.4332 137.339 17.8672 137.339 17.7173C137.339 17.2537 134.718 14.9512 134.408 15.1427C134.327 15.1928 134.301 16.5025 134.35 18.0531C134.427 20.4878 134.394 20.8899 134.106 21.0005C133.76 21.1333 126.843 21.2368 126.722 21.111C126.684 21.0718 126.62 20.8505 126.581 20.6192C126.541 20.3878 126.413 20.131 126.298 20.0485C126.182 19.9659 126.086 19.824 126.084 19.733C126.082 19.642 125.893 19.3516 125.663 19.0876C125.434 18.8235 125.246 18.5396 125.246 18.4566C125.246 18.3736 126.524 18.2584 128.085 18.2005L130.925 18.0954V9.69467V1.29396L132.275 1.3281C133.095 1.34882 133.689 1.46553 133.788 1.62499C134.055 2.05744 134.23 4.31644 134.261 7.7437L134.29 10.9749L135.638 12.2217C136.379 12.9074 137.486 13.989 138.098 14.6252C138.71 15.2614 140.669 17.2489 142.452 19.0418C144.234 20.8347 145.872 22.5446 146.09 22.8416C146.309 23.1385 146.559 23.4224 146.646 23.4725C146.733 23.5226 146.823 21.0593 146.848 17.9986C146.887 12.967 146.928 12.3977 147.268 12.0573C147.63 11.6955 147.645 11.6977 147.645 12.1138C147.645 12.352 147.739 12.4884 147.855 12.4169C147.971 12.3454 148.065 12.0717 148.065 11.8086C148.065 11.4109 148.18 11.3289 148.749 11.322C149.125 11.3174 149.567 11.278 149.731 11.2343C149.985 11.1668 150.023 12.2475 149.989 18.516C149.968 22.5646 149.892 26.4922 149.822 27.2441C149.751 27.9959 149.681 28.8648 149.665 29.175C149.649 29.4851 149.586 29.7893 149.524 29.8509C149.463 29.9126 148.849 29.5761 148.16 29.1033L148.16 29.1033ZM149.327 18.9243C149.327 18.8732 149.232 18.8315 149.117 18.8315C149.001 18.8315 148.906 18.9317 148.906 19.0542C148.906 19.1767 149.001 19.2185 149.117 19.147C149.232 19.0755 149.327 18.9753 149.327 18.9243ZM138.601 17.2867C138.601 17.2468 138.398 17.0339 138.15 16.8135C137.701 16.415 137.7 16.4154 137.947 16.8861C138.152 17.2768 138.601 17.5519 138.601 17.2867ZM80.7635 29.1725C80.4862 29.0788 80.8845 28.3497 81.6377 27.5722C81.9672 27.2321 82.2367 26.8489 82.2367 26.7206C82.2367 26.5026 84.4388 24.0148 86.3302 22.0958C87.134 21.2803 87.1667 21.192 87.2463 19.6202C87.3387 17.7963 87.1309 17.9707 89.2848 17.9092C90.0706 17.8867 90.2765 17.7317 92.2818 15.6519C93.466 14.4236 94.4351 13.3826 94.4352 13.3384C94.4354 13.2943 92.5662 13.3258 90.2815 13.4084C87.9968 13.491 85.3489 13.5036 84.3973 13.4365L82.667 13.3144L82.7318 12.0774C82.7675 11.3971 82.84 10.7971 82.8929 10.7442C82.9458 10.6913 87.0787 10.616 92.0771 10.5769C98.8574 10.5238 101.165 10.5675 101.165 10.749C101.165 10.8828 100.715 11.4136 100.166 11.9286C99.2122 12.8226 95.7818 16.5015 94.9397 17.5336C94.2722 18.3517 93.5655 18.5991 92.052 18.5444L90.6493 18.4938V20.1896C90.6493 21.7327 90.5985 21.9419 90.0851 22.5141C87.0777 25.8658 86.9733 25.9989 87.2237 26.1621C87.338 26.2366 87.4856 26.4396 87.5516 26.6131C87.6304 26.8202 87.6774 26.7617 87.6883 26.443C87.6991 26.126 87.791 26.0106 87.9529 26.1106C88.0893 26.1949 90.4317 26.2779 93.1582 26.2951C96.8244 26.3183 98.2661 26.3999 98.6938 26.6087C99.0119 26.7639 99.2826 26.9467 99.2953 27.0149C99.3079 27.0831 99.3451 27.4228 99.3778 27.7698C99.4105 28.1169 99.4711 28.5427 99.5125 28.7163C99.5777 28.9898 98.8325 29.0387 93.9092 29.0842C90.786 29.113 86.5969 29.1603 84.6001 29.1893C82.6032 29.2183 80.8768 29.2107 80.7635 29.1725L80.7635 29.1725ZM95.4459 15.3557C95.3812 15.291 95.2636 15.4077 95.1846 15.6151C95.0705 15.9149 95.0946 15.939 95.3023 15.7329C95.4461 15.5902 95.5107 15.4205 95.4459 15.3557ZM93.0022 11.7475C92.8504 11.6867 92.669 11.6942 92.5991 11.7641C92.5292 11.8339 92.6534 11.8836 92.8751 11.8745C93.1201 11.8644 93.17 11.8146 93.0022 11.7475ZM111.891 29.2011C111.155 29.0768 109.119 28.2653 108.72 27.9375C108.537 27.7875 108.313 27.6647 108.221 27.6647C108.129 27.6647 107.593 27.1678 107.029 26.5605C105.884 25.3275 104.919 23.5833 104.519 22.0237L104.254 20.9879L101.288 21.0619C99.657 21.1025 98.0393 21.0621 97.6932 20.972C96.9835 20.7872 96.1804 19.5258 96.5421 19.164C96.6556 19.0505 96.7484 18.7757 96.7484 18.5532C96.7484 18.1643 96.8946 18.1536 100.542 18.277C103.465 18.3759 104.352 18.3457 104.408 18.1452C105.328 14.8527 107.151 12.4494 109.706 11.1613C110.784 10.6179 111.224 10.526 113.089 10.4544C114.998 10.3811 115.414 10.4344 116.875 10.9388C118.748 11.5855 120.138 12.5586 121.2 13.9662C122.605 15.8263 123.268 17.5501 123.293 19.4035C123.318 21.3126 123.062 22.4398 122.574 22.5675C122.232 22.6569 122.179 22.7961 122.281 23.3305C122.377 23.8335 122.354 23.9114 122.178 23.6687C121.994 23.4139 121.97 23.4443 122.053 23.8267C122.111 24.0872 122.092 24.2599 122.012 24.2106C121.933 24.1614 121.596 24.6391 121.265 25.2722C120.571 26.5964 119.423 27.6576 117.851 28.4268C116.395 29.139 113.641 29.4968 111.891 29.2011L111.891 29.2011ZM112.522 27.4618C112.522 27.1432 111.73 26.7843 111.576 27.0332C111.372 27.3636 111.167 27.2834 110.942 26.7845C110.66 26.1604 110.186 26.0282 110.273 26.598C110.384 27.3241 110.594 27.4336 112.259 27.6332C112.404 27.6505 112.522 27.5734 112.522 27.4618ZM116.228 25.8817C116.404 25.7056 116.683 25.5497 116.848 25.5353C117.014 25.5208 117.226 25.4971 117.319 25.4827C117.413 25.4682 117.815 25.0778 118.213 24.6151C118.611 24.1524 119.053 23.699 119.196 23.6076C119.606 23.3452 120.161 21.1624 120.17 19.7779C120.18 18.1725 119.498 16.5217 118.326 15.3156C117.852 14.8278 117.387 14.4256 117.292 14.4218C117.042 14.4118 116.59 13.9244 116.608 13.6837C116.616 13.5707 116.126 13.368 115.519 13.2331C114.912 13.0983 114.415 13.0645 114.415 13.1581C114.415 13.2517 114.533 13.376 114.678 13.4343C114.835 13.4977 114.792 13.5471 114.573 13.557C114.37 13.5662 114.203 13.4553 114.201 13.3107C114.199 13.1479 114.139 13.1279 114.044 13.2582C113.867 13.4991 112.301 13.5508 112.449 13.3107C112.647 12.9916 111.909 13.1648 111.554 13.5211C111.351 13.7235 110.73 14.1831 110.173 14.5424C108.195 15.8177 107.378 17.4829 107.551 19.8831C107.705 22.0238 107.966 22.9545 108.702 23.9995L109.326 24.8846L108.874 25.1123C108.453 25.3236 108.461 25.3317 108.974 25.2239C109.313 25.1529 109.913 25.2833 110.519 25.5594C111.064 25.8077 111.904 26.0858 112.384 26.1772C113.687 26.4252 115.851 26.2588 116.228 25.8816V25.8817ZM115.65 13.6444C115.388 13.3271 115.405 13.318 115.834 13.5466C116.324 13.8074 116.444 13.9943 116.123 13.9943C116.022 13.9943 115.809 13.8368 115.65 13.6444ZM101.586 20.514C101.586 20.3983 101.497 20.3037 101.388 20.3037C101.279 20.3037 101.131 20.3983 101.06 20.514C100.988 20.6297 101.077 20.7243 101.258 20.7243C101.438 20.7243 101.586 20.6297 101.586 20.514ZM73.7636 6.25797C72.7194 5.19781 72.5873 4.95074 73.0646 4.95074C73.2253 4.95074 73.3436 4.78511 73.3275 4.58269C73.311 4.37406 73.4218 4.24061 73.5833 4.2746C73.9787 4.35777 74.455 3.92211 74.455 3.4773C74.455 3.27063 74.6632 3.05253 74.926 2.98379C75.2806 2.89108 75.5967 3.05404 76.2046 3.64278C77.4493 4.8484 77.496 5.02931 76.7688 5.82557C76.4216 6.20568 76.1376 6.59581 76.1376 6.69253C76.1376 6.78925 76.051 6.8149 75.9452 6.74951C75.8394 6.68413 75.7211 6.71335 75.6823 6.81445C75.6435 6.91556 75.4189 7.05811 75.1832 7.13123C74.8566 7.23258 74.5191 7.02499 73.7636 6.25797Z" fill="white"/>
</svg>
